<svg width="72" height="72" viewBox="0 0 72 72" fill="none" xmlns="http://www.w3.org/2000/svg">
<g clip-path="url(#clip0_21_273)">
<g filter="url(#filter0_d_21_273)">
<path d="M14.4332 42.6468L14.4686 44.5206L15.8828 43.3186C15.9535 43.2479 21.8225 38.5102 34.5858 45.4752C37.6617 47.1369 41.4801 46.7834 44.3085 44.5206C45.8288 43.2832 46.9248 41.6922 47.4905 39.8537C47.844 39.9244 48.1976 39.9952 48.5158 40.0305C49.0815 40.1012 49.6118 40.1366 50.1775 40.1366C51.3089 40.1366 52.4756 39.8891 53.5362 39.3941C54.5969 38.8991 55.5869 38.192 56.294 37.3435C57.0364 36.4596 57.5668 35.505 57.9557 34.5504C58.6628 32.5705 58.9103 30.5553 58.5921 28.6107C58.5921 28.54 58.5567 28.5047 58.4506 28.4693C58.3446 28.434 58.2385 28.4693 58.2031 28.5754C57.5668 30.3432 56.8243 32.0756 55.799 33.4544C54.809 34.8686 53.607 35.8586 52.2281 36.2475C50.8846 36.6718 49.3643 36.5657 47.738 36.2121C46.9248 36.0354 46.147 35.8232 45.1924 35.505L42.4347 34.7272C40.8437 34.2676 39.2173 33.8433 37.5556 33.5251L36.601 33.2069C34.8333 32.712 33.0655 32.2877 31.2624 32.1816C29.4593 32.0049 27.6561 32.1109 25.853 32.5705C24.0852 32.9948 22.3528 33.7373 20.6911 34.6211C20.5851 34.6565 20.479 34.6211 20.479 34.5504C20.4436 34.4444 20.4436 34.3737 20.5497 34.3383C22.1053 33.2069 23.7317 32.217 25.5702 31.5099C27.4086 30.8028 29.3885 30.4492 31.3331 30.4139C35.3282 30.3078 39.1113 31.2624 42.8236 32.2877L45.5813 33.0655C46.3591 33.2776 46.9955 33.4898 47.6673 33.6666L47.4551 32.818C46.9955 31.2977 46.0763 29.8128 44.8035 28.54C43.9196 27.6561 42.8236 26.843 41.6215 26.2066C37.8031 24.156 33.2776 23.8024 28.8229 25.2166C14.5039 29.7068 14.4332 42.5054 14.4332 42.6468Z" fill="#60C646"/>
</g>
</g>
<defs>
<filter id="filter0_d_21_273" x="11.4332" y="24.3635" width="50.2955" height="28.1469" filterUnits="userSpaceOnUse" color-interpolation-filters="sRGB">
<feFlood flood-opacity="0" result="BackgroundImageFix"/>
<feColorMatrix in="SourceAlpha" type="matrix" values="0 0 0 0 0 0 0 0 0 0 0 0 0 0 0 0 0 0 127 0" result="hardAlpha"/>
<feOffset dy="3"/>
<feGaussianBlur stdDeviation="1.5"/>
<feComposite in2="hardAlpha" operator="out"/>
<feColorMatrix type="matrix" values="0 0 0 0 0 0 0 0 0 0 0 0 0 0 0 0 0 0 0.19 0"/>
<feBlend mode="normal" in2="BackgroundImageFix" result="effect1_dropShadow_21_273"/>
<feBlend mode="normal" in="SourceGraphic" in2="effect1_dropShadow_21_273" result="shape"/>
</filter>
<clipPath id="clip0_21_273">
<rect width="50" height="50" fill="white" transform="translate(36 71.3553) rotate(-135)"/>
</clipPath>
</defs>
</svg>
