<svg width="72" height="72" viewBox="0 0 72 72" fill="none" xmlns="http://www.w3.org/2000/svg">
<g clip-path="url(#clip0_21_273)">
<g filter="url(#filter0_d_21_273)">
<path d="M57.5668 29.3532L57.5314 27.4794L56.1172 28.6815C56.0465 28.7522 50.1775 33.4898 37.4142 26.5248C34.3383 24.8631 30.5199 25.2166 27.6915 27.4794C26.1712 28.7168 25.0752 30.3078 24.5095 32.1463C24.156 32.0756 23.8024 32.0049 23.4842 31.9695C22.9185 31.8988 22.3882 31.8634 21.8225 31.8634C20.6911 31.8634 19.5244 32.1109 18.4638 32.6059C17.4031 33.1009 16.4131 33.808 15.706 34.6565C14.9636 35.5404 14.4332 36.495 14.0443 37.4496C13.3372 39.4295 13.0897 41.4447 13.4079 43.3893C13.4079 43.46 13.4433 43.4953 13.5494 43.5307C13.6554 43.5661 13.7615 43.5307 13.7969 43.4246C14.4332 41.6569 15.1757 39.9245 16.201 38.5456C17.191 37.1314 18.393 36.1414 19.7719 35.7525C21.1154 35.3283 22.6357 35.4343 24.262 35.7879C25.0752 35.9647 25.853 36.1768 26.8076 36.495L29.5653 37.2728C31.1563 37.7324 32.7827 38.1567 34.4444 38.4749L35.399 38.7931C37.1667 39.2881 38.9345 39.7123 40.7376 39.8184C42.5407 39.9952 44.3439 39.8891 46.147 39.4295C47.9148 39.0052 49.6472 38.2628 51.3089 37.3789C51.4149 37.3435 51.521 37.3789 51.521 37.4496C51.5564 37.5556 51.5564 37.6264 51.4503 37.6617C49.8947 38.7931 48.2683 39.783 46.4298 40.4901C44.5914 41.1972 42.6115 41.5508 40.6669 41.5862C36.6718 41.6922 32.8887 40.7376 29.1764 39.7123L26.4187 38.9345C25.6409 38.7224 25.0045 38.5102 24.3327 38.3335L24.5449 39.182C25.0045 40.7023 25.9237 42.1872 27.1965 43.46C28.0804 44.3439 29.1764 45.157 30.3785 45.7934C34.1969 47.844 38.7224 48.1976 43.1771 46.7834C57.4961 42.2933 57.5668 29.4946 57.5668 29.3532Z" fill="#60C646"/>
</g>
</g>
<defs>
<filter id="filter0_d_21_273" x="10.2712" y="25.4896" width="50.2955" height="28.1469" filterUnits="userSpaceOnUse" color-interpolation-filters="sRGB">
<feFlood flood-opacity="0" result="BackgroundImageFix"/>
<feColorMatrix in="SourceAlpha" type="matrix" values="0 0 0 0 0 0 0 0 0 0 0 0 0 0 0 0 0 0 127 0" result="hardAlpha"/>
<feOffset dy="3"/>
<feGaussianBlur stdDeviation="1.5"/>
<feComposite in2="hardAlpha" operator="out"/>
<feColorMatrix type="matrix" values="0 0 0 0 0 0 0 0 0 0 0 0 0 0 0 0 0 0 0.19 0"/>
<feBlend mode="normal" in2="BackgroundImageFix" result="effect1_dropShadow_21_273"/>
<feBlend mode="normal" in="SourceGraphic" in2="effect1_dropShadow_21_273" result="shape"/>
</filter>
<clipPath id="clip0_21_273">
<rect width="50" height="50" fill="white" transform="translate(36 0.644669) rotate(45)"/>
</clipPath>
</defs>
</svg>
