<svg width="80" height="73" viewBox="0 0 80 73" fill="none" xmlns="http://www.w3.org/2000/svg">
<g filter="url(#filter0_d_21_282)">
<path d="M5.05 36.7513L3.75 38.1013L5.6 38.2513C5.7 38.2513 13.2 39.0513 17.3 53.0013C18.3 56.3513 21.25 58.8013 24.85 59.2013C26.8 59.4013 28.7 59.0513 30.4 58.1513C30.6 58.4513 30.8 58.7513 31 59.0013C31.35 59.4513 31.7 59.8513 32.1 60.2513C32.9 61.0513 33.9 61.7013 35 62.1013C36.1 62.5013 37.3 62.7013 38.4 62.6013C39.55 62.5013 40.6 62.2013 41.55 61.8013C43.45 60.9013 45.05 59.6513 46.2 58.0513C46.25 58.0013 46.25 57.9513 46.2 57.8513C46.15 57.7513 46.05 57.7013 45.95 57.7513C44.25 58.5513 42.5 59.2513 40.8 59.5013C39.1 59.8013 37.55 59.6513 36.3 58.9513C35.05 58.3013 34.05 57.1513 33.15 55.7513C32.7 55.0513 32.3 54.3513 31.85 53.4513L30.45 50.9513C29.65 49.5013 28.8 48.0513 27.85 46.6513L27.4 45.7513C26.5 44.1513 25.55 42.6013 24.35 41.2513C23.2 39.8513 21.85 38.6513 20.25 37.7013C18.7 36.7513 16.95 36.0513 15.15 35.5013C15.05 35.4513 15 35.3513 15.05 35.3013C15.1 35.2013 15.15 35.1513 15.25 35.2013C17.15 35.5013 19 35.9513 20.8 36.7513C22.6 37.5513 24.25 38.7013 25.65 40.0513C28.55 42.8013 30.55 46.1513 32.45 49.5013L33.85 52.0013C34.25 52.7013 34.55 53.3013 34.9 53.9013L35.35 53.1513C36.1 51.7513 36.5 50.0513 36.5 48.2513C36.5 47.0013 36.3 45.6513 35.9 44.3513C34.65 40.2013 31.7 36.7513 27.55 34.6013C14.25 27.6513 5.15 36.6513 5.05 36.7513Z" fill="#00BB61"/>
</g>
<g clip-path="url(#clip0_21_282)">
<g filter="url(#filter1_d_21_282)">
<path d="M32.5038 14.5839L30.63 14.6192L31.8321 16.0334C31.9028 16.1042 36.6404 21.9731 29.6754 34.7364C28.0137 37.8123 28.3672 41.6307 30.63 44.4591C31.8674 45.9794 33.4584 47.0754 35.2969 47.6411C35.2262 47.9947 35.1555 48.3482 35.1201 48.6664C35.0494 49.2321 35.014 49.7624 35.014 50.3281C35.014 51.4595 35.2615 52.6262 35.7565 53.6869C36.2515 54.7475 36.9586 55.7375 37.8071 56.4446C38.691 57.1871 39.6456 57.7174 40.6002 58.1063C42.5801 58.8134 44.5953 59.0609 46.5399 58.7427C46.6106 58.7427 46.6459 58.7073 46.6813 58.6013C46.7167 58.4952 46.6813 58.3891 46.5752 58.3538C44.8075 57.7174 43.0751 56.9749 41.6962 55.9496C40.282 54.9597 39.292 53.7576 38.9031 52.3787C38.4789 51.0352 38.5849 49.5149 38.9385 47.8886C39.1153 47.0754 39.3274 46.2976 39.6456 45.343L40.4234 42.5853C40.883 40.9943 41.3073 39.368 41.6255 37.7063L41.9437 36.7517C42.4387 34.9839 42.8629 33.2161 42.969 31.413C43.1458 29.6099 43.0397 27.8068 42.5801 26.0036C42.1558 24.2359 41.4134 22.5035 40.5295 20.8418C40.4941 20.7357 40.5295 20.6296 40.6002 20.6296C40.7062 20.5943 40.777 20.5943 40.8123 20.7003C41.9437 22.256 42.9336 23.8823 43.6407 25.7208C44.3478 27.5593 44.7014 29.5392 44.7368 31.4837C44.8428 35.4789 43.8882 39.2619 42.8629 42.9742L42.0851 45.7319C41.873 46.5097 41.6608 47.1461 41.4841 47.8179L42.3326 47.6058C43.8529 47.1461 45.3378 46.2269 46.6106 44.9541C47.4945 44.0702 48.3076 42.9742 48.944 41.7721C50.9947 37.9538 51.3482 33.4283 49.934 28.9735C45.4439 14.6546 32.6452 14.5839 32.5038 14.5839Z" fill="#5CD73D"/>
</g>
</g>
<g filter="url(#filter2_d_21_282)">
<path d="M74.95 36.7513L76.25 38.1013L74.4 38.2513C74.3 38.2513 66.8 39.0513 62.7 53.0013C61.7 56.3513 58.75 58.8013 55.15 59.2013C53.2 59.4013 51.3 59.0513 49.6 58.1513C49.4 58.4513 49.2 58.7513 49 59.0013C48.65 59.4513 48.3 59.8513 47.9 60.2513C47.1 61.0513 46.1 61.7013 45 62.1013C43.9 62.5013 42.7 62.7013 41.6 62.6013C40.45 62.5013 39.4 62.2013 38.45 61.8013C36.55 60.9013 34.95 59.6513 33.8 58.0513C33.75 58.0013 33.75 57.9513 33.8 57.8513C33.85 57.7513 33.95 57.7013 34.05 57.7513C35.75 58.5513 37.5 59.2513 39.2 59.5013C40.9 59.8013 42.45 59.6513 43.7 58.9513C44.95 58.3013 45.95 57.1513 46.85 55.7513C47.3 55.0513 47.7 54.3513 48.15 53.4513L49.55 50.9513C50.35 49.5013 51.2 48.0513 52.15 46.6513L52.6 45.7513C53.5 44.1513 54.45 42.6013 55.65 41.2513C56.8 39.8513 58.15 38.6513 59.75 37.7013C61.3 36.7513 63.05 36.0513 64.85 35.5013C64.95 35.4513 65 35.3513 64.95 35.3013C64.9 35.2013 64.85 35.1513 64.75 35.2013C62.85 35.5013 61 35.9513 59.2 36.7513C57.4 37.5513 55.75 38.7013 54.35 40.0513C51.45 42.8013 49.45 46.1513 47.55 49.5013L46.15 52.0013C45.75 52.7013 45.45 53.3013 45.1 53.9013L44.65 53.1513C43.9 51.7513 43.5 50.0513 43.5 48.2513C43.5 47.0013 43.7 45.6513 44.1 44.3513C45.35 40.2013 48.3 36.7513 52.45 34.6013C65.75 27.6513 74.85 36.6513 74.95 36.7513Z" fill="#89C900"/>
</g>
<defs>
<filter id="filter0_d_21_282" x="0.75" y="31.9691" width="48.4875" height="36.6577" filterUnits="userSpaceOnUse" color-interpolation-filters="sRGB">
<feFlood flood-opacity="0" result="BackgroundImageFix"/>
<feColorMatrix in="SourceAlpha" type="matrix" values="0 0 0 0 0 0 0 0 0 0 0 0 0 0 0 0 0 0 127 0" result="hardAlpha"/>
<feOffset dy="3"/>
<feGaussianBlur stdDeviation="1.5"/>
<feComposite in2="hardAlpha" operator="out"/>
<feColorMatrix type="matrix" values="0 0 0 0 0 0 0 0 0 0 0 0 0 0 0 0 0 0 0.19 0"/>
<feBlend mode="normal" in2="BackgroundImageFix" result="effect1_dropShadow_21_282"/>
<feBlend mode="normal" in="SourceGraphic" in2="effect1_dropShadow_21_282" result="shape"/>
</filter>
<filter id="filter1_d_21_282" x="24.6402" y="14.5839" width="30.1469" height="52.2955" filterUnits="userSpaceOnUse" color-interpolation-filters="sRGB">
<feFlood flood-opacity="0" result="BackgroundImageFix"/>
<feColorMatrix in="SourceAlpha" type="matrix" values="0 0 0 0 0 0 0 0 0 0 0 0 0 0 0 0 0 0 127 0" result="hardAlpha"/>
<feOffset dy="4"/>
<feGaussianBlur stdDeviation="2"/>
<feComposite in2="hardAlpha" operator="out"/>
<feColorMatrix type="matrix" values="0 0 0 0 0 0 0 0 0 0 0 0 0 0 0 0 0 0 0.25 0"/>
<feBlend mode="normal" in2="BackgroundImageFix" result="effect1_dropShadow_21_282"/>
<feBlend mode="normal" in="SourceGraphic" in2="effect1_dropShadow_21_282" result="shape"/>
</filter>
<filter id="filter2_d_21_282" x="30.7625" y="31.9691" width="48.4875" height="36.6577" filterUnits="userSpaceOnUse" color-interpolation-filters="sRGB">
<feFlood flood-opacity="0" result="BackgroundImageFix"/>
<feColorMatrix in="SourceAlpha" type="matrix" values="0 0 0 0 0 0 0 0 0 0 0 0 0 0 0 0 0 0 127 0" result="hardAlpha"/>
<feOffset dy="3"/>
<feGaussianBlur stdDeviation="1.5"/>
<feComposite in2="hardAlpha" operator="out"/>
<feColorMatrix type="matrix" values="0 0 0 0 0 0 0 0 0 0 0 0 0 0 0 0 0 0 0.26 0"/>
<feBlend mode="normal" in2="BackgroundImageFix" result="effect1_dropShadow_21_282"/>
<feBlend mode="normal" in="SourceGraphic" in2="effect1_dropShadow_21_282" result="shape"/>
</filter>
<clipPath id="clip0_21_282">
<rect width="50" height="50" fill="white" transform="translate(3.79529 36.1506) rotate(-45)"/>
</clipPath>
</defs>
</svg>
